<?xml version="1.0" encoding="utf-8"?>
<!-- Svg Vector Icons : http://www.onlinewebfonts.com/icon -->
<!DOCTYPE svg PUBLIC "-//W3C//DTD SVG 1.1//EN" "http://www.w3.org/Graphics/SVG/1.1/DTD/svg11.dtd">
<svg version="1.1" xmlns="http://www.w3.org/2000/svg" xmlns:xlink="http://www.w3.org/1999/xlink" x="0px" y="0px" viewBox="0 0 256 256" enable-background="new 0 0 256 256" xml:space="preserve">
<metadata> Svg Vector Icons : http://www.onlinewebfonts.com/icon </metadata>
<g><g><g><path fill="#000000" d="M163.9,146.5c-4.4,6.4-9,10.5-13.8,13.4c-4.8,3-10.7,4.4-17.6,4.4c-4,0-7.3-0.9-9.8-2.6c-2.6-1.7-4.6-4-6-7c-1.2-2.5-2-5.6-2.6-9.2s-0.9-6.8-1.1-9.7c6.6-0.8,12.1-1.6,16.6-2.5c4.5-0.9,10-2.4,16.5-4.6c8.1-2.5,14.6-6.3,19.3-11.4c4.7-5.1,7.1-11.2,7.1-18.3c0-7.4-2.7-13-8.2-16.7c-5.5-3.7-13.5-6-23.9-6c-8.9,0-17,2.2-24.4,5.6c-7.4,3.4-13.5,7.9-18.3,13.5c-5.1,5.8-8,12.3-10.6,19.5c-2.6,7.2-3.9,14.7-3.9,22.3c0,6,0.8,11.6,2.6,16.6c1.7,5,3.3,9.4,6.7,13.2c3.5,3.9,15.6,9.2,31.6,9.2c9.1,0,17.7,0.3,26-4.7c8.2-5,15-11.6,20.3-20L163.9,146.5z M120.9,96.9c4-8.2,8.3-12.3,12.8-12.3c3.2,0,5.7,1.5,7.6,4.5c1.8,3,2.7,7.2,2.7,12.7c0,5.6-1,10.1-2.9,13.5c-1.9,3.4-5.1,6.1-9.5,8.3c-2,1-4.7,1.8-8.1,2.5c-3.4,0.7-6.8,1.3-10.3,1.8C114.3,115.4,116.9,105.1,120.9,96.9L120.9,96.9z M246,109.7c0-34.7-51.4-62.9-103.2-59.2c0,0,66.9,26.4,66.9,62.9c0,36.6-9,60.2-44.6,76.8c0,0,40.7,6.5,66.6-21.7l-21.7,1.9C209.9,170.4,246,144.5,246,109.7L246,109.7z M46.1,142.1c0-36.6,9.2-59.9,44.9-76.6c0,0-41.2-6.5-67.1,21.7l22.2-2.1c0,0-36.1,24.5-36.1,59.2c0,34.7,51.4,64.8,103.2,61.1C113.2,205.5,46.1,178.7,46.1,142.1L46.1,142.1z"/></g></g></g>
</svg>